<svg width="265" height="96" xmlns="http://www.w3.org/2000/svg" xmlns:xlink="http://www.w3.org/1999/xlink" overflow="hidden"><defs><clipPath id="clip0"><path d="M0 0 265 0 265 96 0 96Z" fill-rule="evenodd" clip-rule="evenodd"/></clipPath></defs><g clip-path="url(#clip0)"><rect x="0" y="0" width="264.667" height="96" fill="#FFFFFF" transform="scale(1.00126 1)"/><path d="M0 4.39352C0 1.96705 1.96705-1.73986e-15 4.39352-2.31982e-15L68.4918 0C70.9183-1.15991e-15 72.8853 1.96705 72.8853 4.39352L72.8853 68.4918C72.8853 70.9183 70.9183 72.8853 68.4918 72.8853L4.39352 72.8853C1.96705 72.8853 -5.79955e-16 70.9183 0 68.4918Z" fill="#5C73F2" fill-rule="evenodd" transform="matrix(0.985284 0.177697 -0.177488 0.984123 17.1051 5.33017)"/><text fill="#FFFFFF" font-family="Roboto,Roboto_MSFontService,sans-serif" font-weight="900" font-size="67" transform="matrix(1 0 0 0.998742 17.5229 72)">M<tspan fill="#000000" x="58.073" y="0">axime</tspan></text></g></svg>