<svg width="378" height="113" xmlns="http://www.w3.org/2000/svg" xmlns:xlink="http://www.w3.org/1999/xlink" overflow="hidden"><defs><clipPath id="clip0"><path d="M0 0 378 0 378 113 0 113Z" fill-rule="evenodd" clip-rule="evenodd"/></clipPath></defs><g clip-path="url(#clip0)"><rect x="0" y="0" width="376.888" height="113" fill="#FFFFFF" transform="scale(1.00295 1)"/><path d="M0 3.63999C0 1.62968 1.62968 -7.60195e-16 3.63999-1.52039e-15L91.8969 0C93.9072 -7.60195e-16 95.5369 1.62968 95.5369 3.63999L95.5369 91.8969C95.5369 93.9072 93.9072 95.5369 91.8969 95.5369L3.63999 95.5369C1.62968 95.5369 0 93.9072 0 91.8969Z" fill="#0029FA" fill-rule="evenodd" transform="matrix(0.989185 0.16462 -0.164162 0.986433 27.0772 1.18037)"/><text fill="#FFFFFF" font-family="Roboto,Roboto_MSFontService,sans-serif" font-weight="900" font-size="88" transform="matrix(1 0 0 0.997059 31.7503 86)">M<tspan fill="#000000" x="76.6667" y="0">axime</tspan></text></g></svg>